<svg width="120" height="120" viewBox="0 0 120 120" fill="none" xmlns="http://www.w3.org/2000/svg">
<circle cx="60" cy="60" r="60" fill="#1B1E21"/>
<path d="M24.1124 70.9973L4.86373 62.507V59.735L24.1124 50.1203V54.7726L10.8535 60.9175L24.1124 66.3645V70.9973ZM93.8769 46.5924L83.3124 74.9324H77.9429L88.5074 46.5924H93.8769ZM95.7766 66.3645L109.035 60.9175L95.7766 54.7726V50.1203L115.025 59.735V62.507L95.7766 70.9973V66.3645Z" fill="#FFC107"/>
<path d="M52.9177 60.491C52.9177 65.1562 51.5866 68.7294 48.9245 71.2106C46.2753 73.6918 42.4436 74.9324 37.4295 74.9324H29.4044V46.5924H38.3018C42.9282 46.5924 46.5208 47.8136 49.0795 50.256C51.6383 52.6985 52.9177 56.1101 52.9177 60.491ZM46.6759 60.6461C46.6759 54.5594 43.9879 51.516 38.612 51.516H35.4135V69.97H37.9917C43.7811 69.97 46.6759 66.862 46.6759 60.6461ZM58.7911 74.9324V46.5924H64.8003V69.97H76.2952V74.9324H58.7911Z" fill="white"/>
</svg>
